<svg width="145" height="223" viewBox="0 0 145 223" fill="none" xmlns="http://www.w3.org/2000/svg">
<path d="M20.7687 82.0649C20.3205 110.297 53.4452 116.049 70.0636 115.395C87.709 116.235 123 110.746 123 82.0649C123 46.214 92.1903 33.3301 71.7441 33.3301C51.2979 33.3301 21.3288 46.7742 20.7687 82.0649Z" fill="#D6EEE9"/>
<path d="M121.879 82.0648C121.879 64.5099 114.358 52.6512 104.367 45.1494C94.3323 37.615 81.7643 34.4504 71.744 34.4504C61.7363 34.4504 49.3804 37.7481 39.4817 45.3518C29.7754 52.8079 22.3969 64.4257 21.9069 81.276L21.8889 82.0829C21.6739 95.6312 29.4596 103.791 39.4959 108.55C49.5842 113.333 61.8254 114.598 70.0197 114.276L70.0684 114.274L70.1171 114.276C78.8306 114.691 91.8774 113.535 102.697 108.775C113.477 104.032 121.879 95.8106 121.879 82.0648ZM124.12 82.0648C124.12 96.9998 114.877 105.864 103.6 110.826C92.381 115.762 78.985 116.935 70.0531 116.516C61.6293 116.839 49.0304 115.55 38.5364 110.574C27.9681 105.563 19.4151 96.7308 19.6482 82.0468L19.6674 81.2071C20.1789 63.6538 27.9033 51.4208 38.1169 43.575C48.4542 35.6343 61.3057 32.2097 71.744 32.2097C82.1699 32.2097 95.2303 35.4871 105.712 43.3573C116.237 51.2603 124.12 63.769 124.12 82.0648Z" fill="#517A89"/>
<path d="M87.4444 77.4447C87.9514 77.163 88.5827 77.3164 88.9072 77.7822L88.9679 77.8796L89.0139 77.9578C89.2617 78.3565 89.7755 78.8732 90.5544 79.3522C91.3674 79.8523 92.3968 80.2652 93.5363 80.4474C95.7764 80.8056 98.473 80.282 100.89 77.6641C101.309 77.2094 102.018 77.181 102.473 77.6006C102.927 78.0203 102.956 78.7291 102.536 79.1837C99.5752 82.3915 96.1098 83.1283 93.1823 82.6602C91.7382 82.4293 90.4322 81.9074 89.381 81.2609C88.4121 80.665 87.5916 79.9206 87.1025 79.1274L87.0095 78.9682L86.9587 78.8648C86.7347 78.3432 86.9376 77.7264 87.4444 77.4447Z" fill="#456A7E"/>
<path d="M41.5108 77.4447C42.0178 77.163 42.6491 77.3164 42.9736 77.7822L43.0344 77.8796L43.0803 77.9578C43.3281 78.3565 43.8419 78.8732 44.6208 79.3522C45.4338 79.8523 46.4632 80.2652 47.6027 80.4474C49.8428 80.8056 52.5394 80.282 54.956 77.6641C55.3757 77.2094 56.0845 77.181 56.5392 77.6006C56.9938 78.0203 57.0222 78.7291 56.6026 79.1837C53.6416 82.3915 50.1762 83.1283 47.2488 82.6602C45.8046 82.4293 44.4986 81.9074 43.4474 81.2609C42.4785 80.665 41.658 79.9206 41.1689 79.1274L41.0759 78.9682L41.0251 78.8648C40.8011 78.3432 41.004 77.7264 41.5108 77.4447Z" fill="#456A7E"/>
<path d="M63.8407 84.4938C64.3234 84.172 64.9648 84.2743 65.3259 84.7126L65.3943 84.8045L65.4829 84.9325C66.4333 86.2515 68.4298 87.4891 70.8324 87.7574C73.2495 88.0273 76.0445 87.3081 78.4833 84.6661C78.903 84.2115 79.6118 84.183 80.0665 84.6027C80.5211 85.0223 80.5496 85.7311 80.1299 86.1858C77.1912 89.3695 73.6841 90.3307 70.5835 89.9844C67.641 89.6558 65.0281 88.1414 63.6585 86.2334L63.53 86.0474L63.4714 85.9489C63.2057 85.447 63.358 84.8156 63.8407 84.4938Z" fill="#456A7E"/>
<path d="M45.6962 89.347C45.6962 92.2861 43.0253 94.1085 38.6941 94.1085C34.3628 94.1085 30.2915 91.4458 30.2915 88.5068C30.2915 85.5677 32.9624 82.625 37.2936 82.625C41.6249 82.625 45.6962 86.408 45.6962 89.347Z" fill="#FECFBE"/>
<path d="M98.0719 89.347C98.0719 92.2861 100.743 94.1085 105.074 94.1085C109.405 94.1085 113.477 91.4458 113.477 88.5068C113.477 85.5677 110.806 82.625 106.474 82.625C102.143 82.625 98.0719 86.408 98.0719 89.347Z" fill="#FECFBE"/>
<path d="M71.744 30.8094C70.9038 33.797 68.383 38.6518 61.3809 39.212C60.9134 38.1992 60.29 36.2244 60.8775 35.2077C59.9295 36.0642 58.4856 37.1577 57.7398 36.9713C56.6194 35.1974 55.6111 30.2493 60.5406 24.6476C57.4597 24.5542 51.1297 22.911 50.4575 17.0853C50.4575 16.7118 50.9617 15.8529 52.9783 15.4048C52.138 14.0977 51.1857 11.3715 54.0986 10.9234C56.0592 9.98977 60.9327 9.01881 64.7419 12.6039C64.275 9.80305 64.5738 3.52915 69.5033 0.840332C69.8767 0.840332 70.9037 1.34449 72.0241 3.3611C72.4909 2.52084 73.7046 0.840332 74.8249 0.840332C77.5324 2.52084 81.8831 7.56237 77.6258 14.2844C80.2399 11.5769 86.8686 7.61839 92.4703 13.4442C92.1902 14.2844 91.3499 16.077 90.2296 16.5251C90.9765 16.6185 92.6943 17.1413 93.5906 18.4857C92.9371 20.7264 89.7814 25.0957 82.3872 24.6476C84.6279 26.3281 88.437 31.0895 85.7482 36.6912C84.908 36.6912 83.0594 36.3551 82.3872 35.0107C82.5739 35.9443 82.6673 38.0356 81.547 38.9319C78.7461 38.9319 72.8644 37.3074 71.744 30.8094Z" fill="#FED9D4"/>
<path d="M69.5027 0C69.9829 0 70.5238 0.274897 71.0284 0.705136C71.3491 0.978578 71.6898 1.34511 72.0405 1.82438C72.2033 1.61465 72.3812 1.40383 72.5711 1.20513C72.8529 0.91025 73.1806 0.620097 73.541 0.39934C73.8976 0.180907 74.3364 0 74.8243 0H75.064L75.2675 0.126366C76.7411 1.04104 78.6469 2.8527 79.6203 5.36866C80.2991 7.1235 80.5084 9.18479 79.8467 11.4589C80.9873 10.762 82.3118 10.164 83.7439 9.844C86.6893 9.18578 90.0538 9.71928 93.0753 12.8615L93.4276 13.228L93.2667 13.7099C93.1087 14.184 92.8013 14.9057 92.3745 15.5808C92.255 15.7699 92.1174 15.9677 91.9631 16.1618C92.0491 16.1993 92.1357 16.2392 92.2224 16.2816C92.9426 16.6337 93.7331 17.1854 94.2892 18.0195L94.5063 18.345L94.3969 18.7208C93.7156 21.0569 90.8079 25.0666 84.5114 25.4834C85.3202 26.3875 86.1191 27.5342 86.6886 28.869C87.6632 31.1532 87.9715 34.0005 86.5053 37.0549L86.2767 37.5314H85.7477C85.2385 37.5314 84.4614 37.4331 83.7006 37.1386C83.5696 37.0879 83.4362 37.0293 83.3024 36.9636C83.2981 37.0052 83.2955 37.0471 83.2904 37.0888C83.1869 37.9217 82.8859 38.936 82.0715 39.5877L81.8412 39.7721H81.5464C80.0136 39.7721 77.6841 39.3341 75.5711 38.021C73.9853 37.0355 72.5272 35.5577 71.6313 33.4308C71.121 34.4586 70.4245 35.5295 69.4754 36.5062C67.7229 38.3096 65.1516 39.753 61.4476 40.0494L60.8628 40.0965L60.6171 39.5642C60.3614 39.01 60.0634 38.1964 59.9071 37.3667C59.8894 37.2726 59.873 37.1751 59.8584 37.0752C59.7976 37.1153 59.7375 37.1554 59.6768 37.1933C59.3621 37.3896 59.0241 37.5696 58.6894 37.6873C58.3718 37.799 57.9557 37.8913 57.5357 37.7863L57.2085 37.7048L57.0286 37.4198C55.7863 35.4527 54.8916 30.6922 58.9022 25.3313C57.4537 25.1064 55.7436 24.6234 54.1839 23.7487C52.0356 22.5437 50.1207 20.5609 49.6621 17.4829L49.6222 17.1815L49.6167 17.1333V17.0852C49.6167 16.5638 49.9305 16.0412 50.4208 15.6295C50.7506 15.3526 51.1879 15.0991 51.7529 14.8883C51.4822 14.2679 51.274 13.5382 51.2906 12.8221C51.3046 12.2241 51.478 11.5887 51.9531 11.0645C52.403 10.568 53.0468 10.2559 53.8492 10.1131C55.7727 9.24048 59.9827 8.38596 63.7457 10.769C63.7268 9.47982 63.8651 7.96532 64.2894 6.4529C64.9631 4.05173 66.3799 1.58672 69.1001 0.102844L69.2883 0H69.5027ZM74.6395 1.72263C74.578 1.74594 74.504 1.78017 74.4184 1.83259C74.2217 1.95315 74.0065 2.13583 73.7866 2.36595C73.3451 2.828 72.9653 3.39637 72.7582 3.76911L72.0235 5.09131L71.2888 3.76911C70.7655 2.82707 70.2879 2.28222 69.9376 1.98357C69.7977 1.86426 69.6875 1.79186 69.6094 1.7478C67.5883 2.96693 66.472 4.895 65.9076 6.90694C65.3131 9.02593 65.3539 11.1682 65.5701 12.4654L65.9798 14.9233L64.1653 13.216C60.7078 9.96192 56.2518 10.8284 54.4591 11.6821L54.3481 11.7351L54.2261 11.7537C53.6286 11.8456 53.3409 12.0362 53.1987 12.193C53.0594 12.3467 52.9777 12.5586 52.9706 12.8615C52.9553 13.5185 53.3027 14.3561 53.6845 14.9501L54.336 15.9638L53.1599 16.2247C52.2419 16.4287 51.7477 16.7098 51.5013 16.9167C51.3868 17.0128 51.3333 17.085 51.3092 17.124C51.6436 19.6221 53.1539 21.2443 55.0061 22.2832C56.9143 23.3534 59.128 23.7642 60.5657 23.8078L62.3507 23.8619L61.1708 25.2027C56.8819 30.0765 57.4007 34.2805 58.2102 36.0702C58.3716 36.0051 58.5671 35.9054 58.7878 35.7677C59.2726 35.4655 59.7936 35.0449 60.2331 34.6534C60.421 34.3773 60.6764 34.143 61.0045 33.9789L61.9744 35.3246C61.854 35.4449 61.7141 35.5776 61.5613 35.7185C61.4625 35.9741 61.4399 36.4255 61.5586 37.0555C61.6405 37.4902 61.7753 37.9315 61.9175 38.3131C64.8816 37.9515 66.8934 36.7523 68.2703 35.3356C69.7168 33.847 70.4983 32.0788 70.9032 30.6879V29.689H72.5837V30.7311C73.1103 33.6794 74.6909 35.4954 76.4584 36.5938C78.1124 37.6216 79.937 38.0214 81.2067 38.0823C81.4127 37.8126 81.5579 37.4057 81.623 36.8815C81.7033 36.2348 81.6418 35.5704 81.5628 35.1753L83.1383 34.6348C83.3455 35.0493 83.7621 35.3603 84.3073 35.5713C84.6197 35.6923 84.941 35.7653 85.2203 35.8066C86.1749 33.462 85.9045 31.3144 85.1426 29.5287C84.3132 27.5848 82.9042 26.0862 81.8823 25.3198L79.6421 23.6393L82.4375 23.8089C88.964 24.2044 91.8518 20.6487 92.648 18.6404C92.3266 18.2828 91.9159 18.0018 91.4845 17.7909C90.934 17.5217 90.4071 17.394 90.1245 17.3587L89.9172 15.7449C90.2216 15.6231 90.5923 15.2553 90.9544 14.6826C91.1728 14.3371 91.3541 13.9704 91.4889 13.6552C89.0185 11.3077 86.4164 10.9687 84.1104 11.484C81.6285 12.0387 79.4563 13.5976 78.2297 14.868L76.9151 13.8347C78.9045 10.6936 78.8487 8.03152 78.053 5.97478C77.2942 4.01347 75.8333 2.53497 74.6395 1.72263Z" fill="#F19789"/>
<path d="M71.7441 13.164C70.3996 13.6121 70.2503 17.6453 70.3436 19.6059C68.1029 18.4856 63.6216 16.749 63.6216 18.7657C63.6216 20.7823 68.1029 21.4731 70.3436 21.5665C68.6631 22.6869 65.8623 26.608 67.5428 26.8881C68.8872 27.1122 70.9038 23.9939 71.7441 22.4068C72.5843 24.4607 74.657 28.2325 76.2254 26.8881C77.7939 25.5437 74.825 22.5935 73.1445 21.2864C76.0387 20.6329 81.267 19.0457 79.0263 17.9254C76.7856 16.8051 73.9848 18.5789 72.8644 19.6059C73.0511 17.2719 73.0885 12.7158 71.7441 13.164Z" fill="#F19386"/>
<path d="M33.9646 117.42C33.9538 117.399 33.9431 117.377 33.9325 117.356C33.946 117.374 33.9567 117.396 33.9646 117.42C39.73 128.883 91.6642 140.56 109.836 117.916C114.69 124.451 127.313 140.491 138.964 152.366C153.529 167.211 124.96 169.171 118.798 160.769C118.848 161.127 118.887 161.501 118.916 161.889C120.092 177.67 104.312 217.16 61.941 220.987C59.7003 221.827 61.941 217.906 62.7813 217.066C63.6215 216.226 62.5012 210.064 46.2563 201.381C34.2882 194.984 24.1445 179.923 24.8966 161.684C18.2923 165.113 4.29955 169.395 1.1626 159.088C0.714465 155.951 3.96338 152.646 7.60456 149.565C16.7363 139.604 34.6165 119.417 33.9646 117.42Z" fill="#D1E8E5"/>
<path d="M110.735 117.248C115.576 123.764 128.164 139.758 139.764 151.582L140.104 151.935C143.552 155.567 144.798 158.792 143.885 161.483C142.959 164.212 140.028 165.713 136.887 166.381C133.664 167.066 129.804 166.979 126.345 166.18C124.054 165.651 121.841 164.786 120.096 163.548C120.111 171.915 116.253 184.942 107.66 196.586C98.4267 209.098 83.6588 220.108 62.1799 222.089C61.8585 222.194 61.4788 222.268 61.0924 222.195C60.5338 222.091 60.1252 221.714 59.9513 221.217C59.811 220.816 59.8481 220.414 59.8977 220.139C59.9519 219.838 60.0512 219.531 60.163 219.247C60.3874 218.676 60.7116 218.071 61.0284 217.56C61.2931 217.134 61.5906 216.711 61.861 216.409C61.865 216.3 61.8501 216.097 61.762 215.793C61.5742 215.144 61.0932 214.155 60.0541 212.868C58.042 210.377 54.0369 206.897 46.4711 202.771L45.7277 202.369C33.7951 195.991 23.6996 181.329 23.7372 163.489C20.4178 165.001 15.9647 166.469 11.7794 166.657C9.30269 166.767 6.83101 166.434 4.73625 165.312C2.6734 164.207 1.06047 162.38 0.17393 159.678L0.0907798 159.414L0.0656159 159.332L0.053034 159.247C-0.234184 157.236 0.679915 155.32 1.95619 153.63C3.23233 151.941 5.00975 150.296 6.82103 148.761C11.3804 143.786 18.0981 136.288 23.5977 129.783C26.3582 126.517 28.7994 123.517 30.5052 121.217C31.3607 120.064 32.0121 119.111 32.4253 118.402C32.6337 118.044 32.7614 117.782 32.8268 117.608C32.8556 117.531 32.8635 117.494 32.8646 117.489C32.8639 117.494 32.8605 117.519 32.8618 117.562C32.8628 117.594 32.8666 117.643 32.881 117.703L32.8996 117.768C32.9075 117.792 32.9176 117.818 32.9291 117.844L34.8437 116.705L34.9039 116.796C34.9316 116.842 34.9542 116.89 34.975 116.936C35.5771 118.12 36.8395 119.419 38.7666 120.736C40.686 122.048 43.1788 123.32 46.1073 124.476C51.9632 126.786 59.4594 128.591 67.3538 129.343C75.2496 130.095 83.4907 129.788 90.8493 127.917C98.2086 126.046 104.616 122.63 108.962 117.214L109.869 116.083L110.735 117.248ZM109.782 119.713C105.091 124.975 98.5841 128.263 91.4012 130.089C83.7313 132.039 75.2214 132.343 67.1416 131.574C59.0605 130.804 51.3563 128.955 45.2851 126.56C42.2502 125.363 39.5976 124.019 37.5024 122.586C36.2042 121.699 35.0849 120.754 34.2223 119.761C33.752 120.537 33.0955 121.485 32.3044 122.552C30.5556 124.91 28.0782 127.953 25.3088 131.229C19.7657 137.786 13.002 145.335 8.43042 150.322L8.38228 150.375L8.32812 150.42C6.5189 151.951 4.87648 153.482 3.74392 154.981C2.62301 156.465 2.13396 157.745 2.26308 158.854C2.97077 161.106 4.2331 162.5 5.79478 163.337C7.4123 164.203 9.44021 164.518 11.6793 164.418C15.9147 164.229 20.587 162.569 23.8088 160.977C24.1663 154.494 25.8691 147.646 29.2847 140.67L31.2973 141.656C28.0038 148.383 26.3806 154.949 26.044 161.133L26.0156 161.73C25.2815 179.534 35.1911 194.197 46.784 200.393L47.5417 200.802C55.2584 205.01 59.5357 208.661 61.797 211.46C62.9634 212.904 63.6204 214.156 63.9141 215.17C64.0604 215.676 64.1253 216.154 64.0962 216.583C64.069 216.983 63.9482 217.483 63.5732 217.858C63.4552 217.976 63.2113 218.292 62.9321 218.742C62.7148 219.092 62.5085 219.473 62.3523 219.821C82.8914 217.814 96.9952 207.265 105.857 195.256C114.828 183.101 118.36 169.547 117.799 161.98C117.548 159.588 116.979 155.622 116.088 151.511C115.188 147.365 113.98 143.166 112.482 140.278L114.471 139.246C116.11 142.408 117.368 146.846 118.277 151.036C119.028 154.497 119.552 157.855 119.859 160.31C121.213 161.993 123.762 163.284 126.849 163.996C130.024 164.729 133.551 164.799 136.421 164.189C139.371 163.562 141.237 162.315 141.763 160.763C142.257 159.308 141.773 156.949 138.491 153.489L138.164 153.151C127.087 141.86 115.154 126.844 109.782 119.713Z" fill="#517A89"/>
<path d="M1.72266 160.489C15.8389 164.298 23.0091 150.686 27.4905 144.244C25.0257 150.293 24.2228 157.594 24.1295 160.489C10.6854 169.003 3.58989 164.036 1.72266 160.489Z" fill="#B7DDE3"/>
<path d="M141.765 160.489C127.649 164.298 120.479 150.686 115.997 144.244C118.462 150.293 119.265 157.594 119.358 160.489C132.802 169.003 139.898 164.036 141.765 160.489Z" fill="#B7DDE3"/>
<path d="M117.117 176.734C80.8183 208.551 41.6811 189.991 26.6499 176.734C31.9715 191.298 38.1334 196.9 51.5775 204.742C62.3327 211.016 63.5278 215.385 62.7809 216.786L61.1004 220.427L62.5008 220.707C94.9906 218.018 112.449 190.271 117.117 176.734Z" fill="#B7DDE3"/>
<path d="M110.735 117.248C115.576 123.764 128.164 139.758 139.764 151.582L140.104 151.935C143.552 155.567 144.798 158.792 143.885 161.483C142.959 164.212 140.028 165.713 136.887 166.381C133.664 167.066 129.804 166.979 126.345 166.18C124.054 165.651 121.841 164.786 120.096 163.548C120.111 171.915 116.253 184.942 107.66 196.586C98.4267 209.098 83.6588 220.108 62.1799 222.089C61.8585 222.194 61.4788 222.268 61.0924 222.195C60.5338 222.091 60.1252 221.714 59.9513 221.217C59.811 220.816 59.8481 220.414 59.8977 220.139C59.9519 219.838 60.0512 219.531 60.163 219.247C60.3874 218.676 60.7116 218.071 61.0284 217.56C61.2931 217.134 61.5906 216.711 61.861 216.409C61.865 216.3 61.8501 216.097 61.762 215.793C61.5742 215.144 61.0932 214.155 60.0541 212.868C58.042 210.377 54.0369 206.897 46.4711 202.771L45.7277 202.369C33.7951 195.991 23.6996 181.329 23.7372 163.489C20.4178 165.001 15.9647 166.469 11.7794 166.657C9.30269 166.767 6.83101 166.434 4.73625 165.312C2.60689 164.171 0.957261 162.261 0.0907798 159.414L0.0656159 159.332L0.053034 159.247C-0.234184 157.236 0.679915 155.32 1.95619 153.63C3.23233 151.941 5.00975 150.296 6.82103 148.761C11.4362 143.725 18.2625 136.104 23.7984 129.545C26.5774 126.252 29.0171 123.243 30.6879 120.969C31.5269 119.827 32.1497 118.9 32.5237 118.23C32.7139 117.89 32.8126 117.663 32.8525 117.534C32.8726 117.469 32.8625 117.476 32.8613 117.533C32.8604 117.572 32.8625 117.694 32.928 117.845L34.8437 116.705L34.9203 116.824C34.942 116.862 34.9608 116.901 34.9778 116.939C35.5717 118.105 36.8056 119.385 38.6911 120.685C40.5985 122 43.0837 123.276 46.0083 124.436C51.8563 126.757 59.3581 128.573 67.2647 129.334C75.1725 130.095 83.4318 129.797 90.8077 127.928C98.1844 126.059 104.608 122.64 108.962 117.214L109.869 116.083L110.735 117.248ZM109.782 119.712C105.082 124.986 98.5583 128.276 91.358 130.1C83.6706 132.047 75.1422 132.344 67.0502 131.565C58.9571 130.786 51.2466 128.926 45.1823 126.52C42.1508 125.317 39.5041 123.967 37.4192 122.529C36.1573 121.659 35.0682 120.733 34.2234 119.76C33.7891 120.477 33.1981 121.336 32.4937 122.295C30.7772 124.632 28.2983 127.687 25.5107 130.99C19.9306 137.602 13.0576 145.275 8.43042 150.322L8.38228 150.375L8.32812 150.42C6.5189 151.951 4.87648 153.482 3.74392 154.981C2.62301 156.465 2.13396 157.745 2.26308 158.854C2.97077 161.106 4.2331 162.5 5.79478 163.337C7.4123 164.203 9.44021 164.518 11.6793 164.418C15.9147 164.229 20.587 162.569 23.8088 160.977C24.1663 154.494 25.8691 147.646 29.2847 140.67L31.2973 141.656C28.0038 148.383 26.3806 154.949 26.044 161.133L26.0156 161.73C25.2815 179.534 35.1911 194.197 46.784 200.393L47.5417 200.802C55.2584 205.01 59.5357 208.661 61.797 211.46C62.9634 212.904 63.6204 214.156 63.9141 215.17C64.0604 215.676 64.1253 216.154 64.0962 216.583C64.069 216.983 63.9482 217.483 63.5732 217.858C63.4552 217.976 63.2113 218.292 62.9321 218.742C62.7148 219.092 62.5085 219.473 62.3523 219.821C82.8914 217.814 96.9952 207.265 105.857 195.256C114.828 183.101 118.36 169.547 117.799 161.98C117.548 159.588 116.979 155.622 116.088 151.511C115.188 147.365 113.98 143.166 112.482 140.278L114.471 139.246C116.11 142.408 117.368 146.846 118.277 151.036C119.028 154.497 119.552 157.855 119.859 160.31C121.213 161.993 123.762 163.284 126.849 163.996C130.024 164.729 133.551 164.799 136.421 164.189C139.371 163.562 141.237 162.315 141.763 160.763C142.257 159.308 141.773 156.949 138.491 153.489L138.164 153.151C127.087 141.86 115.154 126.843 109.782 119.712Z" fill="#517A89"/>
<path d="M35.6126 108.393C47.9364 113.901 79.2499 121.613 105.914 108.393C110.023 110.402 114.991 116.413 102.833 124.643C108.659 145.038 102.086 152.183 98.0716 153.206C87.5404 150.966 86.0279 136.581 86.5881 129.669C61.9423 132.631 23.6276 125.261 35.6126 108.393Z" fill="#C4C8E6"/>
<path d="M36.0701 107.37C42.1149 110.072 52.8985 113.345 65.4708 114.299C78.0394 115.253 92.3175 113.884 105.417 107.389L105.911 107.144L106.406 107.386L106.615 107.491C108.779 108.608 111.315 110.838 111.59 114.09C111.868 117.372 109.8 121.102 104.127 125.109C106.85 135.014 106.679 141.901 105.211 146.528C103.703 151.279 100.807 153.666 98.3485 154.292L98.0947 154.357L97.8386 154.302C92.026 153.065 88.7984 148.476 87.1112 143.553C85.6246 139.215 85.2616 134.44 85.3935 130.929C73.1516 132.196 57.9614 131.043 47.0218 127.534C41.3832 125.725 36.67 123.227 34.1636 119.928C32.8877 118.248 32.172 116.343 32.2315 114.24C32.2906 112.15 33.1113 109.98 34.6997 107.744L35.2314 106.995L36.0701 107.37ZM102.157 126.413C98.6792 128.498 93.5148 129.885 87.6484 130.663C87.4857 133.992 87.8039 138.662 89.2309 142.826C90.7629 147.296 93.4806 150.963 98.0367 152.049C99.5903 151.545 101.816 149.816 103.075 145.85C104.337 141.876 104.607 135.673 102.157 126.413ZM105.895 109.649C92.4739 116.156 77.9735 117.495 65.3012 116.533C53.0418 115.603 42.4226 112.514 36.0241 109.793C34.9731 111.468 34.5094 112.969 34.4716 114.303C34.4287 115.82 34.9323 117.235 35.9481 118.572C38.0251 121.306 42.1841 123.629 47.7067 125.4C58.6903 128.924 74.2647 130.022 86.4547 128.556L87.0521 128.482C93.1921 127.694 98.2747 126.26 101.387 124.256L101.802 123.985C101.939 123.895 102.073 123.805 102.205 123.715L102.753 123.339C108.268 119.467 109.535 116.37 109.358 114.28C109.186 112.255 107.621 110.623 105.895 109.649Z" fill="#517484"/>
<path d="M45.416 126.038C39.2541 123.237 28.6669 115.787 35.613 108.393C45.8828 113.995 74.4328 121.837 106.475 108.393C110.392 110.488 114.986 116.603 102.919 124.601L103.394 127.999L86.8686 138.922C86.4018 135.932 85.7483 129.898 86.8686 129.68C82.9138 130.397 80.256 130.429 79.0262 130.239C83.7877 127.345 93.2545 120.549 93.0305 116.515C86.8686 119.596 68.0469 124.078 42.055 117.356C41.6815 118.383 41.8309 121.557 45.416 126.038Z" fill="#AFB5DD"/>
<path d="M36.0701 107.37C42.1149 110.072 52.8985 113.345 65.4708 114.299C78.0394 115.253 92.3175 113.884 105.417 107.389L105.911 107.144L106.406 107.386C108.613 108.465 111.306 110.733 111.59 114.09C111.868 117.372 109.8 121.102 104.127 125.109C106.85 135.014 106.679 141.901 105.211 146.528C103.703 151.279 100.807 153.666 98.3485 154.292L98.0947 154.357L97.8386 154.302C92.026 153.065 88.7984 148.476 87.1112 143.553C85.6246 139.215 85.2616 134.44 85.3935 130.929C73.1516 132.196 57.9614 131.043 47.0218 127.534C41.3832 125.725 36.67 123.227 34.1636 119.928C32.8877 118.248 32.172 116.343 32.2315 114.24C32.2906 112.15 33.1113 109.98 34.6997 107.744L35.2314 106.995L36.0701 107.37ZM102.157 126.413C98.6792 128.498 93.5148 129.885 87.6484 130.663C87.4857 133.992 87.8039 138.662 89.2309 142.826C90.7629 147.296 93.4806 150.963 98.0367 152.049C99.5903 151.545 101.816 149.816 103.075 145.85C104.337 141.876 104.607 135.673 102.157 126.413ZM105.895 109.649C92.4739 116.156 77.9735 117.495 65.3012 116.533C53.0418 115.603 42.4226 112.514 36.0241 109.793C34.9731 111.468 34.5094 112.969 34.4716 114.303C34.4287 115.82 34.9323 117.235 35.9481 118.572C38.0251 121.306 42.1841 123.629 47.7067 125.4C58.6903 128.924 74.2647 130.022 86.4547 128.556L87.0521 128.482C93.1921 127.694 98.2747 126.26 101.387 124.256L101.802 123.985C101.939 123.895 102.073 123.805 102.205 123.715L102.753 123.339C108.268 119.467 109.535 116.37 109.358 114.28C109.186 112.255 107.621 110.623 105.895 109.649Z" fill="#517484"/>
<path d="M86.5879 125.198C101.376 121.837 105.447 113.714 105.634 110.073L105.073 108.673L102.553 109.793L103.113 111.474C102.889 116.179 92.0029 122.584 86.5879 125.198Z" fill="#517484"/>
</svg>
