<svg width="67" height="26" viewBox="0 0 67 26" fill="none" xmlns="http://www.w3.org/2000/svg">
<path d="M5.70638 26C4.56658 26 3.56741 25.8049 2.70887 25.4148C1.85032 25.0101 1.1842 24.4466 0.710522 23.7241C0.236841 23.0015 0 22.1562 0 21.188H2.3314C2.3462 21.7371 2.47943 22.2429 2.73107 22.7053C2.99751 23.1533 3.37498 23.5145 3.86346 23.7891C4.36675 24.0492 4.98106 24.1792 5.70638 24.1792C6.32809 24.1792 6.86098 24.0781 7.30505 23.8758C7.76393 23.6735 8.11179 23.3989 8.34863 23.0521C8.58547 22.6908 8.70389 22.279 8.70389 21.8166C8.70389 21.2819 8.57807 20.8412 8.32643 20.4944C8.07479 20.1476 7.73433 19.8658 7.30505 19.649C6.89058 19.4178 6.4021 19.2155 5.8396 19.0421C5.29191 18.8687 4.71461 18.6808 4.10771 18.4785C2.87909 18.0884 1.96134 17.5826 1.35443 16.9612C0.762331 16.3399 0.46628 15.5306 0.46628 14.5336C0.46628 13.681 0.673516 12.944 1.08799 12.3226C1.50246 11.6868 2.07976 11.1955 2.81988 10.8487C3.57481 10.4874 4.46297 10.3068 5.48434 10.3068C6.49091 10.3068 7.37167 10.4874 8.12659 10.8487C8.88152 11.2099 9.47363 11.7085 9.9029 12.3443C10.3322 12.9801 10.5468 13.7243 10.5468 14.5769H8.19321C8.19321 14.1867 8.08959 13.8038 7.88235 13.4281C7.67512 13.0524 7.36426 12.7489 6.94979 12.5177C6.53532 12.2721 6.02463 12.1492 5.41773 12.1492C4.91444 12.1348 4.46297 12.2143 4.0633 12.3877C3.66363 12.5611 3.35278 12.814 3.13074 13.1463C2.9087 13.4787 2.79768 13.8761 2.79768 14.3385C2.79768 14.8009 2.8939 15.1766 3.08633 15.4656C3.29357 15.7402 3.58962 15.9786 3.97448 16.1809C4.35935 16.3832 4.80342 16.5711 5.30671 16.7445C5.8248 16.9034 6.3947 17.0841 7.01641 17.2864C7.78614 17.532 8.46705 17.8355 9.05915 18.1967C9.66606 18.5436 10.1397 18.9988 10.4802 19.5623C10.8355 20.1114 11.0131 20.8195 11.0131 21.6865C11.0131 22.438 10.8133 23.1388 10.4136 23.7891C10.0139 24.4394 9.42182 24.974 8.63728 25.3931C7.85275 25.7977 6.87578 26 5.70638 26Z" fill="#222E50"/>
<path d="M18.6049 26C17.5391 26 16.5917 25.7616 15.7628 25.2847C14.9339 24.8078 14.2825 24.1431 13.8089 23.2905C13.35 22.438 13.1205 21.4481 13.1205 20.321C13.1205 19.1649 13.35 18.1606 13.8089 17.308C14.2825 16.441 14.9339 15.7691 15.7628 15.2922C16.5917 14.8009 17.5539 14.5552 18.6493 14.5552C19.7447 14.5552 20.6846 14.7937 21.4692 15.2705C22.2537 15.7474 22.8606 16.3832 23.2899 17.178C23.7192 17.9583 23.9338 18.8253 23.9338 19.7791C23.9338 19.9236 23.9264 20.0825 23.9116 20.2559C23.9116 20.4149 23.9042 20.5955 23.8894 20.7978H14.7414V19.2589H21.7134C21.669 18.3485 21.3582 17.6404 20.7809 17.1346C20.2036 16.6144 19.4856 16.3543 18.6271 16.3543C18.0202 16.3543 17.4651 16.4916 16.9618 16.7662C16.4585 17.0263 16.0514 17.4164 15.7406 17.9366C15.4445 18.4424 15.2965 19.0855 15.2965 19.8658V20.4727C15.2965 21.2819 15.4445 21.9683 15.7406 22.5319C16.0514 23.081 16.4585 23.5001 16.9618 23.7891C17.4651 24.0636 18.0128 24.2009 18.6049 24.2009C19.3154 24.2009 19.9001 24.0492 20.359 23.7457C20.8179 23.4423 21.1583 23.0304 21.3804 22.5102H23.6007C23.4083 23.1749 23.0827 23.7746 22.6238 24.3093C22.1649 24.8295 21.595 25.2414 20.9141 25.5448C20.248 25.8483 19.4782 26 18.6049 26Z" fill="#222E50"/>
<path d="M26.4007 25.7399V14.8153H28.399L28.5322 16.6795C28.8875 16.0292 29.3908 15.5162 30.0421 15.1405C30.6934 14.7503 31.4409 14.5552 32.2847 14.5552C33.1728 14.5552 33.9352 14.7286 34.5717 15.0754C35.2082 15.4223 35.7041 15.9497 36.0593 16.6578C36.4146 17.3514 36.5922 18.2257 36.5922 19.2805V25.7399H34.3718V19.4973C34.3718 18.4858 34.1424 17.7199 33.6835 17.1997C33.2247 16.6794 32.5585 16.4193 31.6852 16.4193C31.1079 16.4193 30.5898 16.5566 30.1309 16.8312C29.672 17.0913 29.302 17.4815 29.0207 18.0017C28.7543 18.5219 28.6211 19.1577 28.6211 19.9091V25.7399H26.4007Z" fill="#222E50"/>
<path d="M44.0508 25.7399C43.3403 25.7399 42.726 25.6315 42.2079 25.4148C41.6898 25.198 41.2901 24.8367 41.0089 24.331C40.7276 23.8252 40.587 23.1388 40.587 22.2718V16.6578H38.6553V14.8153H40.587L40.8535 12.0842H42.8074V14.8153H45.9825V16.6578H42.8074V22.2935C42.8074 22.9148 42.9406 23.3411 43.2071 23.5723C43.4735 23.7891 43.9324 23.8975 44.5837 23.8975H45.8715V25.7399H44.0508Z" fill="#222E50"/>
<path d="M52.1391 26C51.2213 26 50.459 25.8483 49.8521 25.5448C49.2452 25.2414 48.7937 24.8367 48.4976 24.331C48.2016 23.8108 48.0536 23.2544 48.0536 22.6619C48.0536 21.9394 48.246 21.3253 48.6309 20.8195C49.0157 20.2993 49.5634 19.9019 50.2739 19.6273C50.9845 19.3528 51.8356 19.2155 52.8274 19.2155H55.7361C55.7361 18.5797 55.6399 18.0522 55.4474 17.6332C55.255 17.2141 54.9663 16.9034 54.5815 16.7011C54.2114 16.4844 53.7377 16.376 53.1604 16.376C52.4943 16.376 51.9244 16.5349 51.4507 16.8529C50.9771 17.1563 50.681 17.6115 50.5626 18.2184H48.3422C48.431 17.4526 48.6975 16.8023 49.1415 16.2676C49.6004 15.7185 50.1851 15.2994 50.8956 15.0104C51.6062 14.707 52.3611 14.5552 53.1604 14.5552C54.2114 14.5552 55.0922 14.7359 55.8027 15.0971C56.5132 15.4584 57.0461 15.9714 57.4014 16.6361C57.7714 17.2864 57.9565 18.0667 57.9565 18.9771V25.7399H56.0247L55.8471 23.8975C55.6843 24.1865 55.4918 24.461 55.2698 24.7211C55.0478 24.9812 54.7813 25.2052 54.4705 25.3931C54.1744 25.5809 53.8265 25.7254 53.4269 25.8266C53.042 25.9422 52.6127 26 52.1391 26ZM52.5609 24.2443C53.0346 24.2443 53.4639 24.1503 53.8488 23.9625C54.2336 23.7746 54.5593 23.5217 54.8257 23.2038C55.107 22.8715 55.3142 22.503 55.4474 22.0984C55.5955 21.6793 55.6769 21.253 55.6917 20.8195V20.7545H53.0494C52.4129 20.7545 51.8948 20.834 51.4951 20.9929C51.1103 21.1374 50.829 21.3397 50.6514 21.5998C50.4738 21.8599 50.385 22.1634 50.385 22.5102C50.385 22.8715 50.4664 23.1822 50.6292 23.4423C50.8068 23.6879 51.0585 23.883 51.3841 24.0275C51.7098 24.172 52.1021 24.2443 52.5609 24.2443Z" fill="#222E50"/>
<path d="M60.946 25.7399V14.8153H63.1664V25.7399H60.946ZM62.0784 12.7561C61.6491 12.7561 61.2939 12.6261 61.0126 12.366C60.7462 12.1059 60.6129 11.7735 60.6129 11.3689C60.6129 10.9787 60.7462 10.6608 61.0126 10.4152C61.2939 10.1551 61.6491 10.025 62.0784 10.025C62.4929 10.025 62.8407 10.1551 63.122 10.4152C63.4032 10.6608 63.5438 10.9787 63.5438 11.3689C63.5438 11.7735 63.4032 12.1059 63.122 12.366C62.8407 12.6261 62.4929 12.7561 62.0784 12.7561Z" fill="#222E50"/>
<path d="M62.1429 4.74156C61.4722 4.74156 60.8997 4.51013 60.4256 4.04726C59.9514 3.58439 59.7144 3.02557 59.7144 2.37078C59.7144 1.71599 59.9514 1.15717 60.4256 0.6943C60.8997 0.231433 61.4722 0 62.1429 0C62.8137 0 63.3861 0.231433 63.8602 0.6943C64.3344 1.15717 64.5715 1.71599 64.5715 2.37078C64.5715 3.02557 64.3344 3.58439 63.8602 4.04726C63.3861 4.51013 62.8137 4.74156 62.1429 4.74156ZM61.1542 12.5821L57.9797 9.48312C57.7484 9.25733 57.5749 9.00332 57.4593 8.72108C57.3437 8.43885 57.2858 8.12839 57.2858 7.78971C57.2858 7.12363 57.52 6.56198 57.9884 6.10476C58.4567 5.64754 59.0321 5.41893 59.7144 5.41893C60.0497 5.41893 60.3591 5.48102 60.6424 5.6052C60.9258 5.72938 61.1831 5.90437 61.4144 6.13016L62.1429 6.84139L62.8715 6.13016C63.1028 5.90437 63.3601 5.72938 63.6434 5.6052C63.9267 5.48102 64.2361 5.41893 64.5715 5.41893C65.2538 5.41893 65.8291 5.64754 66.2975 6.10476C66.7658 6.56198 67 7.12363 67 7.78971C67 8.12839 66.9422 8.43885 66.8265 8.72108C66.7109 9.00332 66.5374 9.25733 66.3061 9.48312L63.1317 12.5821C62.9929 12.7175 62.8368 12.8191 62.6633 12.8869C62.4899 12.9546 62.3164 12.9885 62.1429 12.9885C61.9694 12.9885 61.796 12.9546 61.6225 12.8869C61.449 12.8191 61.2929 12.7175 61.1542 12.5821Z" fill="#222E50"/>
</svg>
